<svg xmlns="http://www.w3.org/2000/svg" width="126" height="18" fill="none" class="abjYTg--gW"><path fill="#000" d="M22.363 0H19.36v15.23h3.003zM15.91.852h-3.003v15.23h3.003zm-6.453.952H6.453v15.232h3.004zm-6.454.962H0V18h3.003zm98.684 5.348-4.836-5.376h-2.827v12.448h2.952V7.244l4.415 4.706h.545l4.339-4.706v7.942h2.952V2.738H106.4zm21.602-5.376-7.316 8.09v-8.09h-2.952v12.448h2.705l7.316-8.09v8.09h2.951V2.738zM78.125 7.293c0 1.982 1.084 3.543 2.748 4.198l-3.12 3.695h3.613l2.838-3.362h3.07v3.362h2.953V2.738h-7.515c-2.802 0-4.587 1.916-4.587 4.555m9.152-1.814v3.682h-4.018c-1.34 0-2.06-.748-2.06-1.843s.745-1.842 2.06-1.842zm-22.868-.252c-.18 4.282-1.084 7.045-2.852 7.045h-.443v2.989l.472.025c3.546.198 5.505-2.914 5.827-9.71h4.664v9.61h2.947V2.738H64.507zM53.298 2.564c-3.992 0-6.865 2.763-6.865 6.397 0 3.76 3.126 6.425 6.865 6.425 3.894 0 6.92-2.814 6.92-6.425s-3.026-6.397-6.92-6.397m0 9.834c-2.257 0-3.794-1.47-3.794-3.437 0-2.016 1.54-3.445 3.794-3.445s3.844 1.494 3.844 3.445-1.611 3.437-3.844 3.437m-9.995-9.637H32.885l-.1 2.49c-.147 3.587-1.083 6.998-2.851 7.047l-.819.025V18l2.977-.006v-2.806h10.342v2.806h3.002v-5.696h-2.133zm-2.952 9.537h-6.299c1.066-1.618 1.637-3.959 1.736-6.697h4.563z"/></svg>