<svg xmlns="http://www.w3.org/2000/svg" width="32" height="32" fill="none"><path fill="#A79DF3" fill-rule="evenodd" d="M13.346 5.862 18.15 0c.695 1.381 1.37 3.819.4 5.579.47.043.92.127 1.268.273 2.219.931 4.653 3.338 5.85 8.345.346 1.45.97 2.144 1.711 2.97.7.778 1.503 1.673 2.278 3.428 1.595 3.616-2.71 7.232-5.85 3.948-1.766-1.847-3.308-2.609-4.604-3.249-1.864-.921-3.216-1.589-3.98-4.872-.363 1.531-.218 5.145 3.27 7.35s4.214 6.85 4.141 8.228H2.8c0-13.083 1.656-24.388 10.546-26.138" clip-rule="evenodd"/><path fill="#464BFF" d="M13.346 5.862 18.15 0c.696 1.381 1.37 3.819.4 5.579.471.043.92.127 1.268.273C14.68 6.034 5.04 11.52 7.6 32H2.8c0-13.083 1.656-24.388 10.546-26.138"/></svg>