<svg xmlns="http://www.w3.org/2000/svg" width="50" height="50" fill="none"><path fill="#464BFF" fill-rule="evenodd" d="M24.528 36.997h2.63s.794-.088 1.2-.525c.373-.402.361-1.155.361-1.155s-.05-3.53 1.587-4.049c1.614-.512 3.688 3.41 5.885 4.92 1.662 1.14 2.925.89 2.925.89l5.876-.082s3.073-.19 1.616-2.606c-.12-.197-.85-1.788-4.37-5.055-3.684-3.42-3.19-2.866 1.248-8.782 2.703-3.602 3.783-5.802 3.446-6.743-.322-.898-2.31-.66-2.31-.66l-6.616.04s-.49-.067-.854.151c-.356.213-.584.71-.584.71s-1.048 2.787-2.444 5.158c-2.946 5.003-4.124 5.267-4.605 4.956-1.12-.724-.84-2.908-.84-4.46 0-4.848.735-6.87-1.433-7.392-.719-.174-1.248-.289-3.088-.307-2.36-.024-4.358.007-5.49.561-.752.369-1.333 1.19-.979 1.237.437.058 1.427.267 1.952.982.679.922.655 2.993.655 2.993s.39 5.707-.91 6.416c-.892.486-2.115-.506-4.742-5.045-1.345-2.324-2.361-4.894-2.361-4.894s-.196-.48-.545-.738c-.425-.311-1.017-.41-1.017-.41l-6.287.041s-.943.027-1.29.437c-.309.365-.025 1.12-.025 1.12s4.922 11.516 10.495 17.319c5.111 5.32 10.914 4.971 10.914 4.971" clip-rule="evenodd"/></svg>