<svg width="40" height="40" fill="none" viewBox="0 0 40 40" xmlns="http://www.w3.org/2000/svg"> <path d="m20 0c11.046 0 20 8.954 20 20s-8.954 20-20 20c-3.5344 0.0057-7.0067-0.9297-10.06-2.71l-9.932 2.71 2.704-9.936c-1.7818-3.0543-2.7179-6.528-2.712-10.064 0-11.046 8.954-20 20-20zm-6.816 10.6-0.4 0.016c-0.2589 0.0158-0.512 0.0838-0.744 0.2-0.2169 0.1229-0.415 0.2764-0.588 0.456-0.24 0.226-0.376 0.422-0.522 0.612-0.7397 0.9618-1.138 2.1426-1.132 3.356 4e-3 0.98 0.25998 1.934 0.65998 2.826 0.818 1.804 2.164 3.714 3.94 5.484 0.428 0.426 0.848 0.854 1.3 1.252 2.2068 1.9429 4.8365 3.3441 7.68 4.092l1.136 0.174c0.37 0.02 0.74-8e-3 1.112-0.026 0.5825-0.0301 1.1512-0.1878 1.666-0.462 0.2619-0.1349 0.5175-0.2817 0.766-0.44 0 0 0.086-0.056 0.25-0.18 0.27-0.2 0.436-0.342 0.66-0.576 0.166-0.172 0.31-0.374 0.42-0.604 0.156-0.326 0.312-0.948 0.376-1.466 0.048-0.396 0.034-0.612 0.028-0.746-8e-3 -0.214-0.186-0.436-0.38-0.53l-1.164-0.522s-1.74-0.758-2.804-1.242c-0.1113-0.0486-0.2306-0.0764-0.352-0.082-0.1368-0.0141-0.2751 0.0013-0.4055 0.0451-0.1304 0.0439-0.2499 0.1151-0.3505 0.2089-0.01-4e-3 -0.144 0.11-1.59 1.862-0.083 0.1115-0.1973 0.1958-0.3284 0.2421s-0.273 0.0525-0.4076 0.0179c-0.1303-0.035-0.2579-0.0791-0.382-0.132-0.248-0.104-0.334-0.144-0.504-0.216-1.1479-0.5009-2.2106-1.1777-3.15-2.006-0.252-0.22-0.486-0.46-0.726-0.692-0.7868-0.7536-1.4725-1.606-2.04-2.536l-0.118-0.19c-0.0847-0.1277-0.1533-0.2654-0.204-0.41-0.076-0.294 0.122-0.53 0.122-0.53s0.486-0.532 0.712-0.82c0.22-0.28 0.406-0.552 0.526-0.746 0.236-0.38 0.31-0.77 0.186-1.072-0.56-1.368-1.14-2.73-1.736-4.082-0.118-0.268-0.468-0.46-0.786-0.498-0.108-0.012-0.216-0.024-0.324-0.032-0.2686-0.0133-0.5377-0.0107-0.806 8e-3l0.404-0.014z" fill="#45C179"/>
</svg>