<svg width="48" height="48" viewBox="0 0 48 48" fill="none" xmlns="http://www.w3.org/2000/svg">
<path d="M22.7885 28.1017V23.5619C22.7881 23.2497 22.6639 22.9504 22.4431 22.7296C22.2224 22.5088 21.923 22.3846 21.6108 22.3843H19.9162C19.7919 22.3843 19.6727 22.4337 19.5848 22.5216C19.4969 22.6095 19.4475 22.7287 19.4475 22.853C19.4475 22.9773 19.4969 23.0966 19.5848 23.1845C19.6727 23.2724 19.7919 23.3218 19.9162 23.3218H21.6108C21.6744 23.3219 21.7355 23.3472 21.7805 23.3922C21.8255 23.4372 21.8508 23.4983 21.8509 23.5619V28.1017C21.8508 28.1654 21.8255 28.2264 21.7805 28.2714C21.7355 28.3164 21.6744 28.3418 21.6108 28.3418H9.57438C9.51071 28.3418 9.44967 28.3165 9.40465 28.2714C9.35963 28.2264 9.3343 28.1654 9.33423 28.1017V23.5619C9.33431 23.4983 9.35963 23.4372 9.40465 23.3922C9.44967 23.3472 9.51071 23.3219 9.57438 23.3218H17.4323C17.5567 23.3218 17.6759 23.2724 17.7638 23.1845C17.8517 23.0966 17.9011 22.9773 17.9011 22.853C17.9011 22.7287 17.8517 22.6095 17.7638 22.5216C17.6759 22.4337 17.5567 22.3843 17.4323 22.3843H9.57438C9.26216 22.3846 8.96282 22.5088 8.74204 22.7296C8.52127 22.9504 8.39708 23.2497 8.39673 23.5619V28.1017C8.39708 28.4139 8.52127 28.7133 8.74204 28.934C8.96282 29.1548 9.26216 29.279 9.57438 29.2793H21.6108C21.923 29.279 22.2224 29.1548 22.4431 28.934C22.6639 28.7133 22.7881 28.4139 22.7885 28.1017Z" fill="black"/>
<path d="M28.6061 22.3843H25.3929C25.1336 22.3846 24.885 22.4877 24.7016 22.6711C24.5182 22.8545 24.4151 23.1031 24.4148 23.3624V28.3012C24.4151 28.5605 24.5182 28.8091 24.7016 28.9925C24.885 29.1759 25.1336 29.2791 25.3929 29.2794H28.6061C28.8654 29.2791 29.1141 29.1759 29.2974 28.9925C29.4808 28.8091 29.5839 28.5605 29.5842 28.3012V23.3624C29.5839 23.1031 29.4808 22.8545 29.2974 22.6711C29.114 22.4877 28.8654 22.3846 28.6061 22.3843ZM28.6467 28.3012C28.6467 28.3119 28.6424 28.3223 28.6348 28.3299C28.6272 28.3375 28.6169 28.3418 28.6061 28.3418H25.3929C25.3822 28.3418 25.3718 28.3375 25.3642 28.3299C25.3566 28.3223 25.3523 28.3119 25.3523 28.3012V23.3624C25.3523 23.3516 25.3566 23.3413 25.3642 23.3337C25.3718 23.326 25.3822 23.3218 25.3929 23.3218H28.6061C28.6169 23.3218 28.6272 23.326 28.6348 23.3337C28.6424 23.3413 28.6467 23.3516 28.6467 23.3624V28.3012Z" fill="black"/>
<path d="M28.9875 33.8199H20.1804C20.0561 33.8199 19.9369 33.8693 19.849 33.9572C19.7611 34.0451 19.7117 34.1644 19.7117 34.2887C19.7117 34.413 19.7611 34.5322 19.849 34.6202C19.9369 34.7081 20.0561 34.7574 20.1804 34.7574H28.9875C29.1118 34.7574 29.2311 34.7081 29.319 34.6202C29.4069 34.5322 29.4563 34.413 29.4563 34.2887C29.4563 34.1644 29.4069 34.0451 29.319 33.9572C29.2311 33.8693 29.1118 33.8199 28.9875 33.8199Z" fill="black"/>
<path d="M28.9875 31.4252H20.1804C20.0561 31.4252 19.9369 31.4746 19.849 31.5625C19.7611 31.6504 19.7117 31.7696 19.7117 31.8939C19.7117 32.0182 19.7611 32.1375 19.849 32.2254C19.9369 32.3133 20.0561 32.3627 20.1804 32.3627H28.9875C29.1118 32.3627 29.2311 32.3133 29.319 32.2254C29.4069 32.1375 29.4563 32.0182 29.4563 31.8939C29.4563 31.7696 29.4069 31.6504 29.319 31.5625C29.2311 31.4746 29.1118 31.4252 28.9875 31.4252Z" fill="black"/>
<path d="M43.858 11.4395C43.858 8.73192 42.7903 6.13359 40.8867 4.2082C38.9831 2.28281 36.3971 1.18568 33.6897 1.15484C30.9823 1.124 28.372 2.16194 26.425 4.04347C24.4781 5.92499 23.3515 8.49834 23.2898 11.2052H13.6077V11.1704C13.6073 10.8605 13.4841 10.5635 13.265 10.3444C13.0459 10.1253 12.7489 10.002 12.439 10.0017H9.56544C9.2556 10.002 8.95855 10.1253 8.73946 10.3444C8.52037 10.5635 8.39713 10.8605 8.39677 11.1704V11.2707C7.21062 11.4632 6.1315 12.071 5.35212 12.9857C4.57275 13.9003 4.14388 15.0622 4.14209 16.2639V43.1088V43.1106C4.14188 43.6012 4.23837 44.0871 4.42603 44.5404C4.61369 44.9937 4.88885 45.4056 5.23577 45.7525C5.5827 46.0995 5.99459 46.3746 6.44791 46.5623C6.90123 46.7499 7.38709 46.8464 7.87772 46.8462H33.3379C33.4627 46.8452 33.582 46.7949 33.6699 46.7062C33.7577 46.6176 33.8069 46.4978 33.8067 46.373V43.1106C33.8067 42.9863 33.7573 42.867 33.6694 42.7791C33.5815 42.6912 33.4623 42.6418 33.3379 42.6418C33.2136 42.6418 33.0944 42.6912 33.0065 42.7791C32.9186 42.867 32.8692 42.9863 32.8692 43.1106V45.837C32.2112 45.6851 31.6304 45.3003 31.2339 44.7537C30.8374 44.207 30.652 43.5355 30.7119 42.8629C30.7717 42.1902 31.0728 41.562 31.5596 41.0939C32.0464 40.6259 32.686 40.3497 33.3604 40.3163C33.4485 40.3116 33.5335 40.2821 33.6056 40.2313C33.6776 40.1805 33.734 40.1104 33.7681 40.0291C33.7686 40.028 33.7692 40.0271 33.7697 40.026C33.7805 39.9998 33.789 39.9726 33.7949 39.9449C33.7955 39.9425 33.7965 39.9403 33.797 39.938C33.8034 39.907 33.8066 39.8754 33.8067 39.8438L33.8065 39.8418V21.7221C36.4921 21.6579 39.0464 20.5468 40.9242 18.6257C42.8021 16.7047 43.8549 14.1259 43.858 11.4395ZM33.5724 2.09139C35.4213 2.09139 37.2286 2.63965 38.7659 3.66683C40.3032 4.69401 41.5014 6.15398 42.2089 7.86212C42.9165 9.57026 43.1016 11.4498 42.7409 13.2632C42.3802 15.0765 41.4899 16.7422 40.1825 18.0496C38.8752 19.3569 37.2095 20.2472 35.3961 20.6079C33.5828 20.9686 31.7032 20.7835 29.9951 20.076C28.2869 19.3684 26.8269 18.1703 25.7998 16.633C24.7726 15.0957 24.2243 13.2884 24.2243 11.4395C24.2271 8.96107 25.2129 6.58498 26.9654 4.83248C28.7179 3.07999 31.094 2.0942 33.5724 2.09139ZM9.33428 11.1704C9.33435 11.1091 9.35873 11.0503 9.40206 11.007C9.4454 10.9636 9.50416 10.9393 9.56544 10.9392H12.439C12.5003 10.9393 12.5591 10.9636 12.6024 11.007C12.6457 11.0503 12.6701 11.1091 12.6702 11.1704L12.67 16.9085L12.0149 16.0362C11.9051 15.8891 11.763 15.7693 11.5995 15.686C11.436 15.6028 11.2556 15.5582 11.0721 15.5559C11.0656 15.5558 11.0591 15.5557 11.0525 15.5557C10.8724 15.5552 10.6945 15.5955 10.5321 15.6735C10.3697 15.7515 10.227 15.8652 10.1148 16.0061L9.33428 16.9791V11.1704ZM29.7633 43.1106C29.7621 43.6013 29.8581 44.0874 30.0458 44.5408C30.2335 44.9942 30.5091 45.4059 30.8568 45.7523L30.8571 45.7526C30.911 45.8065 30.9662 45.8585 31.023 45.9087H7.87767C7.25496 45.9089 6.64999 45.7013 6.1585 45.3189C5.66702 44.9366 5.31711 44.4012 5.16414 43.7975H22.3197C22.4441 43.7975 22.5633 43.7482 22.6512 43.6603C22.7391 43.5723 22.7885 43.4531 22.7885 43.3288C22.7885 43.2045 22.7391 43.0852 22.6512 42.9973C22.5633 42.9094 22.4441 42.86 22.3197 42.86H5.09134C5.15467 42.1645 5.47551 41.5177 5.99095 41.0465C6.50639 40.5752 7.17927 40.3135 7.87767 40.3125H31.0206C30.6246 40.6631 30.3077 41.0939 30.0909 41.5763C29.8741 42.0587 29.7625 42.5817 29.7633 43.1106ZM7.87767 39.375C7.34819 39.375 6.82476 39.4877 6.34226 39.7058C5.85976 39.9238 5.42927 40.2422 5.07946 40.6397L5.07959 40.6371V16.264C5.08078 15.3109 5.41181 14.3875 6.01649 13.6508C6.62116 12.914 7.46219 12.4093 8.39677 12.2222V17.0198C8.39522 17.2114 8.45399 17.3986 8.56475 17.555C8.67551 17.7113 8.83266 17.8288 9.01393 17.8909C9.114 17.9263 9.21935 17.9445 9.32549 17.9446C9.4631 17.9444 9.59888 17.9131 9.72265 17.8529C9.84643 17.7928 9.955 17.7055 10.0402 17.5974L10.8461 16.5925C10.8714 16.561 10.9036 16.5356 10.9402 16.5184C10.9768 16.5012 11.0168 16.4926 11.0573 16.4933C11.0978 16.4936 11.1377 16.5033 11.1738 16.5217C11.2099 16.5401 11.2412 16.5666 11.2652 16.5992L11.9463 17.5058C12.0626 17.6607 12.2247 17.7751 12.4097 17.8327C12.5946 17.8904 12.793 17.8884 12.9767 17.8271C13.1605 17.7657 13.3203 17.6482 13.4335 17.491C13.5468 17.3338 13.6077 17.145 13.6077 16.9513V12.1427H23.3113C23.4844 14.6204 24.5469 16.9522 26.3032 18.7085C28.0595 20.4649 30.3912 21.5274 32.869 21.7005V39.375H7.87767Z" fill="black"/>
</svg>
