<?xml version="1.0" encoding="iso-8859-1"?>
<!-- Generator: Adobe Illustrator 21.1.0, SVG Export Plug-In . SVG Version: 6.00 Build 0)  -->
<svg version="1.1" id="Layer_1" xmlns="http://www.w3.org/2000/svg" xmlns:xlink="http://www.w3.org/1999/xlink" x="0px" y="0px"
	 viewBox="0 0 100.176 100.178" style="enable-background:new 0 0 100.176 100.178;" xml:space="preserve">
<g>
	<path d="M50.059,57.461c-18.321,0-33.226,14.906-33.226,33.229c0,0.828,0.671,1.5,1.5,1.5h63.455c0.828,0,1.5-0.672,1.5-1.5
		C83.288,72.367,68.382,57.461,50.059,57.461z M63.26,63.507V89.19H36.203V63.832c4.153-2.152,8.864-3.371,13.856-3.371
		C54.79,60.461,59.268,61.56,63.26,63.507z M33.203,65.618V89.19H19.87C20.351,79.381,25.534,70.791,33.203,65.618z M66.26,89.19
		V65.184c8.03,5.119,13.497,13.918,13.991,24.006H66.26z"/>
	<path d="M49.763,50.456c12.682,0,22.999-10.317,22.999-22.999c0-0.553-0.027-1.099-0.065-1.643h9.078c0.828,0,1.5-0.671,1.5-1.5
		s-0.672-1.5-1.5-1.5h-9.484C70.137,12.351,60.854,4.458,49.763,4.458c-12.682,0-22.999,10.317-22.999,22.999
		S37.081,50.456,49.763,50.456z M49.763,7.458c9.427,0,17.331,6.564,19.433,15.356H30.33C32.432,14.022,40.336,7.458,49.763,7.458z
		 M29.847,25.815h39.832c0.044,0.543,0.083,1.088,0.083,1.643c0,11.027-8.972,19.999-19.999,19.999s-19.999-8.972-19.999-19.999
		C29.764,26.903,29.802,26.358,29.847,25.815z"/>
</g>
</svg>
