<svg width="265" height="40" viewBox="0 0 265 40" fill="none" xmlns="http://www.w3.org/2000/svg">
<path d="M20.8098 7.61609C20.8098 9.82604 19.8425 11.8162 18.2972 13.2081L22.2787 15.9415V20.9506H18.381C18.569 23.2725 19.5992 25.0834 22.0827 27.6231C24.7458 30.3465 26.4407 32.5801 26.4407 32.5801V40H13.2203H0V32.5801C0 32.5801 1.69492 30.3465 4.35801 27.6231C6.84148 25.0834 7.8717 23.2725 8.05967 20.9506H4.16196V15.9415L8.14343 13.2081C6.59817 11.8162 5.63088 9.82604 5.63088 7.61609C5.63088 3.48749 8.81356 0 13.2203 0C17.6271 0 20.8098 3.48749 20.8098 7.61609Z" fill="#A79DF3"/>
<path d="M5.63088 7.61609C5.63088 9.82604 6.59817 11.8162 8.14343 13.2081L4.16196 15.9415V20.9506H8.05967C7.8717 23.2725 6.84148 25.0834 4.35801 27.6231C1.69492 30.3465 0 32.5801 0 32.5801V40H13.2203V0C8.81356 0 5.63088 3.48749 5.63088 7.61609Z" fill="#464BFF"/>
<path fill-rule="evenodd" clip-rule="evenodd" d="M164.15 7.27271V39.3321H173.044V27.4434C173.044 26.6271 173.17 25.9221 173.422 25.3284C173.674 24.7347 174.06 24.282 174.579 23.9703C175.098 23.6586 175.757 23.5102 176.558 23.525C177.714 23.5399 178.603 23.9109 179.226 24.6382C179.849 25.3506 180.16 26.2857 180.16 27.4434V39.3321H189.055V24.9499C189.055 23.2579 188.691 21.6994 187.965 20.2746C187.239 18.8349 186.142 17.6846 184.674 16.8237C183.221 15.948 181.39 15.5102 179.182 15.5102C177.492 15.5102 175.98 15.8812 174.645 16.6234C174.08 16.9317 173.546 17.2747 173.044 17.6524V7.27271H164.15ZM230.685 39.9555C228.387 39.9555 226.312 39.6958 224.458 39.1763C222.62 38.642 221.004 37.8776 219.611 36.8831L222.19 30.9165C223.554 31.6883 224.977 32.3043 226.46 32.7644C227.957 33.2245 229.336 33.4546 230.596 33.4546C231.559 33.4546 232.278 33.3581 232.753 33.1651C233.242 32.9574 233.486 32.6531 233.486 32.2523C233.486 31.911 233.257 31.6735 232.797 31.5399C232.338 31.3915 231.396 31.2134 229.973 31.0056C226.727 30.5306 224.34 29.6549 222.813 28.3785C221.301 27.1021 220.545 25.3507 220.545 23.1243C220.545 21.5362 220.982 20.1559 221.857 18.9833C222.731 17.8108 223.94 16.9054 225.481 16.2672C227.023 15.6141 228.802 15.2876 230.818 15.2876C232.775 15.2876 234.635 15.5473 236.399 16.0668C238.163 16.5715 239.668 17.2616 240.913 18.1373L238.423 24.1039C237.756 23.6438 237.007 23.2431 236.177 22.9017C235.347 22.5455 234.494 22.2709 233.62 22.0779C232.745 21.885 231.915 21.7885 231.129 21.7885C230.284 21.7885 229.61 21.885 229.106 22.0779C228.617 22.2561 228.372 22.5158 228.372 22.8572C228.372 23.1837 228.565 23.4286 228.95 23.5919C229.35 23.7551 230.284 23.9852 231.752 24.282C235.221 24.9648 237.674 25.885 239.112 27.0427C240.55 28.1856 241.269 29.8034 241.269 31.8961C241.269 33.5139 240.817 34.9314 239.913 36.1485C239.023 37.3507 237.785 38.2857 236.199 38.9536C234.613 39.6215 232.775 39.9555 230.685 39.9555ZM254.311 39.9555C252.013 39.9555 249.938 39.6958 248.085 39.1763C246.246 38.642 244.63 37.8776 243.237 36.8831L245.816 30.9165C247.18 31.6883 248.603 32.3043 250.086 32.7644C251.583 33.2245 252.962 33.4546 254.222 33.4546C255.185 33.4546 255.904 33.3581 256.379 33.1651C256.868 32.9574 257.112 32.6531 257.112 32.2523C257.112 31.911 256.883 31.6735 256.423 31.5399C255.964 31.3915 255.022 31.2134 253.599 31.0056C250.353 30.5306 247.966 29.6549 246.439 28.3785C244.927 27.1021 244.171 25.3507 244.171 23.1243C244.171 21.5362 244.608 20.1559 245.483 18.9833C246.357 17.8108 247.566 16.9054 249.107 16.2672C250.649 15.6141 252.428 15.2876 254.444 15.2876C256.401 15.2876 258.261 15.5473 260.025 16.0668C261.789 16.5715 263.294 17.2616 264.539 18.1373L262.049 24.1039C261.382 23.6438 260.633 23.2431 259.803 22.9017C258.973 22.5455 258.12 22.2709 257.246 22.0779C256.371 21.885 255.541 21.7885 254.755 21.7885C253.91 21.7885 253.236 21.885 252.732 22.0779C252.243 22.2561 251.998 22.5158 251.998 22.8572C251.998 23.1837 252.191 23.4286 252.576 23.5919C252.976 23.7551 253.91 23.9852 255.378 24.282C258.847 24.9648 261.3 25.885 262.738 27.0427C264.176 28.1856 264.895 29.8034 264.895 31.8961C264.895 33.5139 264.443 34.9314 263.539 36.1485C262.649 37.3507 261.411 38.2857 259.825 38.9536C258.239 39.6215 256.401 39.9555 254.311 39.9555ZM198.78 38.4639C200.722 39.488 202.99 40 205.584 40C206.77 40 208.03 39.8665 209.365 39.5993C210.699 39.347 211.951 39.0056 213.123 38.5752C214.294 38.1448 215.22 37.6698 215.902 37.1503L213.323 31.2728C212.122 31.9852 210.914 32.5047 209.698 32.8312C208.483 33.1577 207.171 33.321 205.762 33.321C204.799 33.321 203.939 33.1949 203.183 32.9425C202.427 32.6754 201.819 32.3117 201.36 31.8516C200.915 31.3915 200.663 30.8572 200.604 30.2487H217.281C217.711 28.1411 217.733 26.1967 217.347 24.4156C216.962 22.6197 216.236 21.0613 215.168 19.7403C214.101 18.4045 212.745 17.3655 211.099 16.6234C209.468 15.8813 207.601 15.5103 205.496 15.5103C203.613 15.5103 201.886 15.8071 200.314 16.4008C198.758 16.9945 197.402 17.8331 196.245 18.9166C195.104 20 194.214 21.2913 193.577 22.7904C192.954 24.2746 192.643 25.9147 192.643 27.7106C192.643 30.1744 193.177 32.3266 194.244 34.167C195.326 36.0075 196.838 37.4398 198.78 38.4639ZM208.92 24.4602H201.182C201.256 23.6587 201.663 23.0056 202.405 22.501C203.161 21.9963 204.102 21.744 205.229 21.744C206.326 21.744 207.215 21.9963 207.897 22.501C208.579 23.0056 208.92 23.6587 208.92 24.4602ZM139.68 38.0408C142.171 39.3469 145.032 40 148.263 40C151.11 40 153.563 39.6438 155.624 38.9314C157.684 38.2189 159.411 37.3284 160.805 36.2597L156.713 28.7347C155.513 29.5955 154.252 30.2263 152.933 30.6271C151.629 31.0278 150.339 31.2282 149.064 31.2282C147.404 31.2282 145.988 30.9314 144.817 30.3377C143.646 29.7291 142.749 28.8683 142.126 27.7551C141.504 26.6419 141.192 25.3061 141.192 23.7477C141.192 22.6048 141.363 21.5733 141.704 20.6531C142.045 19.7328 142.541 18.9462 143.194 18.2931C143.861 17.6401 144.676 17.1429 145.64 16.8015C146.603 16.4453 147.715 16.2672 148.975 16.2672C150.383 16.2672 151.658 16.4898 152.8 16.9351C153.956 17.3655 154.934 18.0186 155.735 18.8942L160.138 11.5028C158.626 10.2263 156.98 9.23933 155.201 8.54174C153.422 7.84416 151.154 7.49536 148.397 7.49536C145.981 7.49536 143.757 7.8961 141.726 8.69759C139.695 9.48423 137.931 10.6048 136.434 12.0594C134.951 13.5139 133.802 15.243 132.987 17.2468C132.172 19.2505 131.764 21.462 131.764 23.8813C131.764 27.1911 132.461 30.0557 133.854 32.475C135.263 34.8794 137.205 36.7347 139.68 38.0408Z" fill="black"/>
<path fill-rule="evenodd" clip-rule="evenodd" d="M119.791 7.27271V39.3321H123.082V7.27271H119.791ZM97.9865 38.4415C99.7209 39.4805 101.685 40 103.879 40C105.539 40 107.066 39.7031 108.46 39.1094C109.868 38.5009 111.084 37.6697 112.107 36.6159C113.129 35.5473 113.923 34.3228 114.486 32.9424C115.064 31.5473 115.353 30.0779 115.353 28.5343C115.353 26.4564 114.856 24.5491 113.863 22.8126C112.87 21.0612 111.506 19.666 109.772 18.627C108.052 17.5881 106.088 17.0686 103.879 17.0686C102.234 17.0686 100.714 17.3729 99.3207 17.9814C97.9272 18.5751 96.7116 19.4063 95.6739 20.4749C94.6363 21.5287 93.8283 22.7458 93.2502 24.1261C92.6869 25.5064 92.4052 26.9758 92.4052 28.5343C92.4052 30.6122 92.9018 32.5269 93.895 34.2782C94.8883 36.0148 96.2521 37.4026 97.9865 38.4415ZM108.06 35.9257C106.844 36.6085 105.45 36.9499 103.879 36.9499C102.308 36.9499 100.914 36.6085 99.6987 35.9257C98.498 35.2282 97.5492 34.256 96.8525 33.0092C96.1557 31.7476 95.8074 30.256 95.8074 28.5343C95.8074 26.8126 96.1483 25.3209 96.8302 24.0593C97.527 22.7977 98.4831 21.8256 99.6987 21.1428C100.914 20.4601 102.308 20.1187 103.879 20.1187C105.45 20.1187 106.844 20.4601 108.06 21.1428C109.275 21.8256 110.224 22.7977 110.906 24.0593C111.603 25.3209 111.951 26.8126 111.951 28.5343C111.951 30.256 111.603 31.7476 110.906 33.0092C110.224 34.256 109.275 35.2282 108.06 35.9257ZM78.2327 40C76.0387 40 74.0745 39.4805 72.3401 38.4415C70.6057 37.4026 69.2418 36.0148 68.2486 34.2782C67.2554 32.5269 66.7588 30.6122 66.7588 28.5343C66.7588 26.9758 67.0405 25.5064 67.6038 24.1261C68.1819 22.7458 68.9898 21.5287 70.0275 20.4749C71.0652 19.4063 72.2808 18.5751 73.6743 17.9814C75.0677 17.3729 76.5872 17.0686 78.2327 17.0686C80.4415 17.0686 82.4057 17.5881 84.1253 18.627C85.8598 19.666 87.2236 21.0612 88.2168 22.8126C89.21 24.5491 89.7066 26.4564 89.7066 28.5343C89.7066 30.0779 89.4176 31.5473 88.8394 32.9424C88.2761 34.3228 87.483 35.5473 86.4601 36.6159C85.4373 37.6697 84.2217 38.5009 82.8134 39.1094C81.4199 39.7031 79.893 40 78.2327 40ZM78.2327 36.9499C79.8041 36.9499 81.1975 36.6085 82.4131 35.9257C83.6287 35.2282 84.5775 34.256 85.2594 33.0092C85.9561 31.7476 86.3045 30.256 86.3045 28.5343C86.3045 26.8126 85.9561 25.3209 85.2594 24.0593C84.5775 22.7977 83.6287 21.8256 82.4131 21.1428C81.1975 20.4601 79.8041 20.1187 78.2327 20.1187C76.6613 20.1187 75.2679 20.4601 74.0523 21.1428C72.8367 21.8256 71.8805 22.7977 71.1838 24.0593C70.5019 25.3209 70.1609 26.8126 70.1609 28.5343C70.1609 30.256 70.5093 31.7476 71.206 33.0092C71.9028 34.256 72.8515 35.2282 74.0523 35.9257C75.2679 36.6085 76.6613 36.9499 78.2327 36.9499ZM44.8877 37.974C47.2892 39.3247 50.0984 40 53.3153 40C55.5241 40 57.555 39.7106 59.408 39.1317C61.2758 38.538 62.9806 37.6327 64.5223 36.4156L62.9213 33.5213C61.6168 34.6642 60.2011 35.4879 58.6742 35.9926C57.1621 36.4824 55.5611 36.7273 53.8712 36.7273C51.2325 36.7273 48.9347 36.2152 46.9779 35.1911C45.0359 34.167 43.5313 32.6902 42.464 30.7607C41.3966 28.8163 40.8629 26.4638 40.8629 23.7032C40.8629 21.6994 41.1594 19.9035 41.7524 18.3154C42.3602 16.7124 43.22 15.3544 44.3318 14.2412C45.4584 13.1132 46.8 12.2449 48.3566 11.6364C49.9279 11.0278 51.6772 10.7236 53.6043 10.7236C55.235 10.7236 56.7322 10.9462 58.0961 11.3915C59.4599 11.8367 60.6681 12.5195 61.7206 13.4397L63.5884 10.679C62.3728 9.66976 60.9127 8.89054 59.2079 8.34137C57.5031 7.77737 55.5463 7.49536 53.3375 7.49536C51.0101 7.49536 48.868 7.8961 46.9112 8.69759C44.9692 9.49907 43.2793 10.6345 41.8413 12.1039C40.4182 13.5584 39.3138 15.2727 38.5281 17.2468C37.7425 19.2059 37.3496 21.3655 37.3496 23.7254C37.3496 26.9759 38.0093 29.8256 39.3286 32.2746C40.648 34.7236 42.501 36.6234 44.8877 37.974Z" fill="black"/>
</svg>
