<svg xmlns="http://www.w3.org/2000/svg" width="265" height="40" fill="none"><path fill="#A79DF3" d="M20.81 7.616c0 2.21-.967 4.2-2.513 5.592l3.982 2.733v5.01H18.38c.188 2.322 1.218 4.132 3.702 6.672 2.663 2.723 4.358 4.957 4.358 4.957V40H0v-7.42s1.695-2.233 4.358-4.957c2.483-2.54 3.514-4.35 3.702-6.672H4.162v-5.01l3.981-2.733c-1.545-1.392-2.512-3.382-2.512-5.592C5.63 3.487 8.814 0 13.22 0s7.589 3.487 7.589 7.616"/><path fill="#464BFF" d="M5.63 7.616c0 2.21.968 4.2 2.513 5.592l-3.981 2.733v5.01H8.06c-.188 2.322-1.219 4.132-3.702 6.672C1.695 30.346 0 32.58 0 32.58V40h13.22V0C8.814 0 5.63 3.487 5.63 7.616"/><path fill="#fff" fill-rule="evenodd" d="M164.15 7.273v32.06h8.894v-11.89q0-1.223.378-2.114t1.157-1.358q.778-.468 1.979-.446 1.734.023 2.668 1.113.934 1.07.934 2.806v11.888h8.895V24.95q0-2.538-1.09-4.675-1.089-2.16-3.291-3.451-2.18-1.314-5.492-1.314-2.535 0-4.537 1.114-.848.462-1.601 1.029V7.273zm66.535 32.683q-3.446 0-6.227-.78-2.757-.8-4.847-2.293l2.579-5.966a21.7 21.7 0 0 0 4.27 1.848q2.246.69 4.136.69 1.444 0 2.157-.29.733-.311.733-.912 0-.513-.689-.713-.689-.222-2.824-.534-4.87-.712-7.16-2.627-2.268-1.915-2.268-5.254 0-2.383 1.312-4.141t3.624-2.717q2.313-.98 5.337-.98 2.935 0 5.581.78 2.646.757 4.514 2.07l-2.49 5.967a12 12 0 0 0-2.246-1.202q-1.246-.534-2.557-.824a11.6 11.6 0 0 0-2.491-.29q-1.267 0-2.023.29-.734.267-.734.78 0 .488.578.734.6.244 2.802.69 5.203 1.025 7.36 2.76 2.157 1.716 2.157 4.854 0 2.427-1.356 4.253-1.335 1.803-3.714 2.805t-5.514 1.002m23.626 0q-3.447 0-6.226-.78-2.758-.8-4.848-2.293l2.579-5.966a21.7 21.7 0 0 0 4.27 1.848q2.246.69 4.136.69 1.445 0 2.157-.29.733-.311.733-.912 0-.513-.689-.713-.689-.222-2.824-.534-4.87-.712-7.16-2.627-2.268-1.915-2.268-5.254 0-2.383 1.312-4.141t3.624-2.717q2.313-.98 5.337-.98 2.935 0 5.581.78 2.646.757 4.514 2.07l-2.49 5.967a12 12 0 0 0-2.246-1.202q-1.245-.534-2.557-.824a11.6 11.6 0 0 0-2.491-.29q-1.267 0-2.023.29-.734.267-.734.78 0 .488.578.734.6.244 2.802.69 5.203 1.025 7.36 2.76 2.157 1.716 2.157 4.854 0 2.427-1.356 4.253-1.335 1.803-3.714 2.805t-5.514 1.002m-55.531-1.492Q201.693 40 205.584 40q1.779 0 3.781-.4a23.6 23.6 0 0 0 3.758-1.025q1.756-.645 2.779-1.424l-2.579-5.878q-1.801 1.069-3.625 1.558-1.822.49-3.936.49-1.445 0-2.579-.378-1.134-.4-1.823-1.091a2.62 2.62 0 0 1-.756-1.603h16.677q.645-3.162.066-5.833-.577-2.694-2.179-4.675-1.6-2.004-4.069-3.117-2.446-1.113-5.603-1.113-2.824 0-5.182.89-2.334.89-4.069 2.516a11.5 11.5 0 0 0-2.668 3.874q-.934 2.226-.934 4.92 0 3.696 1.601 6.456 1.623 2.76 4.536 4.297m10.14-14.004h-7.738q.11-1.202 1.223-1.959 1.134-.756 2.824-.757 1.645 0 2.668.757t1.023 1.96m-69.24 13.581q3.736 1.96 8.583 1.96 4.27 0 7.361-1.07 3.09-1.068 5.181-2.671l-4.092-7.525q-1.8 1.291-3.78 1.892a13.1 13.1 0 0 1-3.869.601q-2.49 0-4.247-.89-1.757-.914-2.691-2.583t-.934-4.007q0-1.715.512-3.095a6.5 6.5 0 0 1 1.49-2.36q1-.98 2.446-1.491 1.445-.535 3.335-.535 2.112 0 3.825.668a7.4 7.4 0 0 1 2.935 1.96l4.403-7.392a17.6 17.6 0 0 0-4.937-2.961q-2.669-1.046-6.804-1.046-3.624 0-6.671 1.202-3.046 1.18-5.292 3.362-2.225 2.181-3.447 5.187-1.223 3.006-1.223 6.634 0 4.965 2.09 8.594 2.113 3.607 5.826 5.566M119.791 7.273v32.06h3.291V7.272zM97.987 38.442Q100.588 40 103.879 40q2.49 0 4.581-.89a11.2 11.2 0 0 0 3.647-2.494 11.6 11.6 0 0 0 2.379-3.673q.867-2.093.867-4.408 0-3.117-1.49-5.722a11.3 11.3 0 0 0-4.091-4.186q-2.58-1.558-5.893-1.558-2.468 0-4.558.913a11.1 11.1 0 0 0-3.647 2.493 11.5 11.5 0 0 0-2.424 3.651 11.6 11.6 0 0 0-.845 4.409q0 3.116 1.49 5.744a11.35 11.35 0 0 0 4.092 4.163m10.073-2.516q-1.823 1.024-4.181 1.024t-4.18-1.024q-1.801-1.047-2.846-2.916-1.045-1.893-1.045-4.475 0-2.583 1.022-4.475 1.045-1.893 2.869-2.917 1.823-1.024 4.18-1.024 2.358 0 4.181 1.024t2.846 2.917q1.045 1.892 1.045 4.475t-1.045 4.475a7.4 7.4 0 0 1-2.846 2.916M78.233 40q-3.29 0-5.893-1.558a11.35 11.35 0 0 1-4.091-4.163q-1.49-2.628-1.49-5.745 0-2.337.845-4.408a11.5 11.5 0 0 1 2.424-3.65 11.1 11.1 0 0 1 3.646-2.494q2.09-.913 4.559-.913 3.314 0 5.892 1.558a11.3 11.3 0 0 1 4.092 4.186q1.49 2.605 1.49 5.722a11.4 11.4 0 0 1-.867 4.408 11.6 11.6 0 0 1-2.38 3.673 11.2 11.2 0 0 1-3.646 2.494q-2.09.89-4.581.89m0-3.05q2.357 0 4.18-1.024a7.4 7.4 0 0 0 2.847-2.916q1.044-1.893 1.045-4.475 0-2.583-1.046-4.475-1.022-1.893-2.846-2.917-1.823-1.024-4.18-1.024-2.358 0-4.18 1.024-1.823 1.024-2.87 2.917-1.022 1.892-1.022 4.475t1.045 4.475q1.046 1.869 2.846 2.916 1.825 1.024 4.18 1.024m-33.345 1.024Q48.49 40 53.315 40q3.314 0 6.093-.868a16 16 0 0 0 5.114-2.716l-1.6-2.894q-1.957 1.714-4.248 2.47a15.5 15.5 0 0 1-4.803.736q-3.957 0-6.893-1.537a10.83 10.83 0 0 1-4.514-4.43q-1.6-2.916-1.6-7.058 0-3.006.889-5.387.91-2.404 2.579-4.075 1.69-1.692 4.025-2.604 2.356-.913 5.248-.913 2.445 0 4.491.668a10.3 10.3 0 0 1 3.625 2.048l1.868-2.76q-1.824-1.516-4.381-2.338-2.558-.846-5.87-.846-3.492 0-6.427 1.202a15 15 0 0 0-5.07 3.406q-2.134 2.182-3.313 5.143-1.178 2.94-1.178 6.479 0 4.875 1.979 8.549t5.559 5.7" clip-rule="evenodd"/></svg>