<svg class="injected-svg" id="svg-4ea1cc43-6ef0-4170-abf9-d8dddb8fb50e" height="100%" width="100%" viewBox="0 0 540 508" xmlns="http://www.w3.org/2000/svg"><g xmlns="http://www.w3.org/2000/svg" fill="#29A354" id="shape-svg"><title>graphic</title><g id="Слой_2" data-name="Слой 2"><g id="Слой_1-2" data-name="Слой 1"><path transform="translate(321, 175) scale(0.5,0.5)" d="M0,279.62.55,33.68C.61,7.73,28.73-8.42,51.17,4.6L263.89,128.05c22.44,13,22.36,45.45-.13,58.38L50.49,308.92C28,321.84-.06,305.57,0,279.62Z"></path></g></g></g><g xmlns="http://www.w3.org/2000/svg" fill="#ffffff" id="icon-svg">
    <path transform="translate(329.5, 205.5) scale(0.5,0.5)" d="M 90 2.015 C 74.812 9.096, 69.407 27.006, 78.441 40.318 L 80.854 43.873 77.939 44.513 C 74.437 45.283, 71 49.344, 71 52.712 C 71 55.752, 76.084 61, 79.030 61 C 80.354 61, 81.034 61.492, 80.757 62.250 C 80.505 62.938, 77.428 81.387, 73.919 103.250 L 67.539 143 61.224 143 C 55.853 143, 54.542 143.367, 52.455 145.455 C 49.418 148.491, 49.267 152.799, 52.073 156.365 C 53.710 158.447, 55.021 159.006, 58.323 159.030 C 61.913 159.057, 62.219 159.215, 60.500 160.160 C 53.646 163.928, 46.666 173.984, 45.397 181.917 C 44.846 185.363, 44.374 186, 42.372 186 C 40.102 186, 40 186.301, 40 193 L 40 200 100 200 L 160 200 160 193 C 160 186.301, 159.898 186, 157.628 186 C 155.625 186, 155.154 185.363, 154.601 181.908 C 153.385 174.304, 147.044 164.828, 140.500 160.837 L 137.500 159.007 141.295 159.004 C 148.978 158.996, 152.800 150.709, 147.545 145.455 C 145.456 143.365, 144.148 143, 138.761 143 L 132.431 143 126.060 103.250 C 122.557 81.387, 119.487 62.938, 119.238 62.250 C 118.964 61.494, 119.648 61, 120.970 61 C 123.916 61, 129 55.752, 129 52.712 C 129 49.344, 125.563 45.283, 122.061 44.513 L 119.146 43.873 121.559 40.318 C 130.226 27.547, 125.524 9.993, 111.500 2.763 C 105.547 -0.307, 95.714 -0.649, 90 2.015" stroke="none" fill-rule="evenodd"></path>
</g><path xmlns="http://www.w3.org/2000/svg" id="SvgjsPath17575720" d="M20.72-9.43C19.29-7.90 17.65-6.78 15.32-6.78C12.83-6.78 10.07-8.69 10.07-11.92C10.07-15.32 12.72-17.07 15.21-17.07C17.01-17.07 18.60-16.54 20.30-14.84L23.96-21.09C21.78-23.37 18.29-24.49 14.20-24.49C6.68-24.49 1.59-18.87 1.59-11.92C1.59-4.40 6.73 0.64 14.68 0.64C18.81 0.64 22.42-0.85 24.43-3.60ZM26.02-11.92C26.02-4.77 31.11 0.64 39.27 0.64C47.44 0.64 52.52-4.77 52.52-11.92C52.52-19.08 47.44-24.49 39.27-24.49C31.11-24.49 26.02-19.08 26.02-11.92ZM34.50-11.92C34.50-15.16 36.73-17.07 39.27-17.07C41.92-17.07 44.04-15.00 44.04-11.92C44.04-8.69 41.98-6.78 39.27-6.78C36.57-6.78 34.50-8.90 34.50-11.92ZM55.70-11.92C55.70-4.77 60.79 0.64 68.95 0.64C77.11 0.64 82.20-4.77 82.20-11.92C82.20-19.08 77.11-24.49 68.95-24.49C60.79-24.49 55.70-19.08 55.70-11.92ZM64.18-11.92C64.18-15.16 66.41-17.07 68.95-17.07C71.60-17.07 73.72-15.00 73.72-11.92C73.72-8.69 71.66-6.78 68.95-6.78C66.25-6.78 64.18-8.90 64.18-11.92ZM86.71-6.84C86.71-1.64 88.93 0.64 92.64 0.64C95.88 0.64 98.10-0.32 99.64-1.59L98.05-7.63C97.31-7.15 96.78-6.78 95.98-6.78C95.19-6.78 94.66-7.68 94.66-9.86L94.66-37.10L86.71-37.10ZM131.49-9.43C130.06-7.90 128.42-6.78 126.09-6.78C123.60-6.78 120.84-8.69 120.84-11.92C120.84-15.32 123.49-17.07 125.98-17.07C127.78-17.07 129.37-16.54 131.07-14.84L134.73-21.09C132.55-23.37 129.06-24.49 124.97-24.49C117.45-24.49 112.36-18.87 112.36-11.92C112.36-4.40 117.50 0.64 125.45 0.64C129.58 0.64 133.19-0.85 135.20-3.60ZM139.39 0L147.34 0L147.34-15.32C148.45-16.43 149.78-16.85 151.16-16.85C153.38-16.85 154.97-15.37 154.97-12.98L154.97 0L162.92 0L162.92-13.99C162.92-21.46 158.73-24.27 153.22-24.27C150.78-24.27 148.72-23.43 147.34-22.21L147.34-37.10L139.39-37.10ZM186.93-7.68C185.66-6.89 183.43-5.99 180.68-5.99C178.08-5.99 175.85-7.00 175.11-9.28L190.91-9.28C191.22-10.33 191.38-11.39 191.38-13.25C191.38-20.03 185.98-24.49 179.83-24.49C171.98-24.49 166.90-18.87 166.90-11.92C166.90-4.40 171.98 0.64 179.83 0.64C183.22 0.64 186.61-0.21 189.10-2.07ZM179.56-17.86C182.11-17.86 183.43-16.22 183.43-14.57L174.85-14.57C175.59-16.70 176.91-17.86 179.56-17.86ZM207.23-7.05C207.23-6.36 206.59-5.99 205.43-5.99C203.04-5.99 199.28-7.53 197.80-8.96L194.03-3.76C195.15-2.07 199.86 0.64 204.90 0.64C211.26 0.64 215.18-2.60 215.18-7.42C215.18-15.90 202.57-14.31 202.57-16.80C202.57-17.33 203.25-17.86 204.42-17.86C207.02-17.86 209.61-16.59 210.99-15.63L213.96-21.25C212.37-22.63 209.30-24.49 203.94-24.49C198.86-24.49 194.62-21.84 194.62-16.70C194.62-8.00 207.23-9.59 207.23-7.05ZM231.56-7.05C231.56-6.36 230.92-5.99 229.75-5.99C227.37-5.99 223.61-7.53 222.12-8.96L218.36-3.76C219.47-2.07 224.19 0.64 229.22 0.64C235.58 0.64 239.51-2.60 239.51-7.42C239.51-15.90 226.89-14.31 226.89-16.80C226.89-17.33 227.58-17.86 228.75-17.86C231.34-17.86 233.94-16.59 235.32-15.63L238.29-21.25C236.70-22.63 233.62-24.49 228.27-24.49C223.18-24.49 218.94-21.84 218.94-16.70C218.94-8.00 231.56-9.59 231.56-7.05Z" fill="#29A354" fontsize="53" transform="matrix(1,0,0,1,49.49000000000001,273.23)"></path></svg>