<svg width="43" height="43" viewBox="0 0 43 43" fill="none" xmlns="http://www.w3.org/2000/svg">
<path d="M31.9007 21.7419C31.7754 21.6175 31.6269 21.519 31.4635 21.452C31.3001 21.385 31.1252 21.3508 30.9486 21.3514C30.772 21.3521 30.5973 21.3875 30.4345 21.4556C30.2716 21.5238 30.1237 21.6233 29.9993 21.7486C29.8749 21.8739 29.7764 22.0225 29.7094 22.1858C29.6424 22.3492 29.6082 22.5241 29.6089 22.7007C29.6095 22.8773 29.6449 23.052 29.713 23.2149C29.7812 23.3777 29.8807 23.5256 30.006 23.65C31.1431 24.775 32.0456 26.1144 32.6615 27.5906C33.2773 29.0668 33.5942 30.6505 33.5938 32.25C33.5938 33.8894 28.8773 36.2813 21.5001 36.2813C14.1229 36.2813 9.40633 33.8894 9.40633 32.25C9.4042 30.661 9.71522 29.0872 10.3216 27.6185C10.928 26.1498 11.8179 24.815 12.9404 23.6903C13.1907 23.4386 13.3311 23.098 13.3311 22.743C13.3311 22.388 13.1907 22.0474 12.9404 21.7956C12.6886 21.5454 12.3481 21.4049 11.9931 21.4049C11.6381 21.4049 11.2975 21.5454 11.0457 21.7956C9.66851 23.1651 8.57688 24.7944 7.83413 26.589C7.09138 28.3836 6.71229 30.3078 6.71883 32.25C6.71883 36.6172 14.3379 38.9688 21.5001 38.9688C28.6623 38.9688 36.2813 36.6172 36.2813 32.25C36.2865 30.2952 35.9017 28.359 35.1495 26.5547C34.3974 24.7504 33.2929 23.1142 31.9007 21.7419Z" fill="black"/>
<path d="M21.5 22.8438C23.3604 22.8438 25.179 22.2921 26.7258 21.2585C28.2727 20.2249 29.4783 18.7559 30.1902 17.0371C30.9022 15.3184 31.0885 13.4271 30.7255 11.6024C30.3626 9.7778 29.4667 8.10177 28.1512 6.78628C26.8357 5.47079 25.1597 4.57493 23.3351 4.21199C21.5104 3.84905 19.6192 4.03533 17.9004 4.74726C16.1816 5.4592 14.7126 6.66482 13.679 8.21167C12.6454 9.75852 12.0938 11.5771 12.0938 13.4375C12.0938 15.9322 13.0848 18.3247 14.8488 20.0887C16.6128 21.8527 19.0053 22.8438 21.5 22.8438ZM21.5 6.71875C22.8288 6.71875 24.1278 7.1128 25.2327 7.85107C26.3376 8.58933 27.1988 9.63866 27.7073 10.8664C28.2158 12.094 28.3489 13.445 28.0897 14.7483C27.8304 16.0516 27.1905 17.2487 26.2509 18.1884C25.3112 19.128 24.1141 19.7679 22.8108 20.0272C21.5075 20.2864 20.1565 20.1533 18.9288 19.6448C17.7012 19.1363 16.6518 18.2751 15.9136 17.1702C15.1753 16.0653 14.7812 14.7663 14.7812 13.4375C14.7812 11.6556 15.4891 9.94664 16.7491 8.68663C18.0091 7.42662 19.7181 6.71875 21.5 6.71875Z" fill="black"/>
</svg>
