<svg xmlns="http://www.w3.org/2000/svg" width="50" height="50" fill="none"><path fill="#fff" d="M25 5c11.046 0 20 8.954 20 20s-8.954 20-20 20a19.9 19.9 0 0 1-10.06-2.71L5.008 45l2.704-9.936A19.9 19.9 0 0 1 5 25C5 13.954 13.954 5 25 5m-6.816 10.6-.4.016a1.9 1.9 0 0 0-.744.2 2.6 2.6 0 0 0-.588.456c-.24.226-.376.422-.522.612a5.46 5.46 0 0 0-1.132 3.356c.004.98.26 1.934.66 2.826.818 1.804 2.164 3.714 3.94 5.484.428.426.848.854 1.3 1.252a18.9 18.9 0 0 0 7.68 4.092l1.136.174c.37.02.74-.008 1.112-.026a4 4 0 0 0 1.666-.462q.393-.203.766-.44s.086-.056.25-.18c.27-.2.436-.342.66-.576.166-.172.31-.374.42-.604.156-.326.312-.948.376-1.466.048-.396.034-.612.028-.746-.008-.214-.186-.436-.38-.53l-1.164-.522s-1.74-.758-2.804-1.242a1 1 0 0 0-.352-.082.96.96 0 0 0-.756.254c-.01-.004-.144.11-1.59 1.862a.7.7 0 0 1-.736.26 3 3 0 0 1-.382-.132c-.248-.104-.334-.144-.504-.216a12 12 0 0 1-3.15-2.006c-.252-.22-.486-.46-.726-.692a12.6 12.6 0 0 1-2.04-2.536l-.118-.19a2 2 0 0 1-.204-.41c-.076-.294.122-.53.122-.53s.486-.532.712-.82c.22-.28.406-.552.526-.746.236-.38.31-.77.186-1.072q-.841-2.053-1.736-4.082c-.118-.268-.468-.46-.786-.498a9 9 0 0 0-.324-.032 7 7 0 0 0-.806.008z"/></svg>