<svg xmlns="http://www.w3.org/2000/svg" width="50" height="50" fill="none"><path fill="#fff" fill-rule="evenodd" d="M24.528 36.996h2.63s.794-.087 1.2-.524c.373-.402.362-1.156.362-1.156s-.052-3.529 1.586-4.048c1.615-.512 3.688 3.41 5.885 4.919 1.662 1.14 2.925.891 2.925.891l5.876-.082s3.073-.19 1.616-2.606c-.12-.198-.85-1.788-4.37-5.055-3.684-3.42-3.19-2.867 1.248-8.782 2.703-3.603 3.783-5.802 3.446-6.744-.322-.897-2.31-.66-2.31-.66l-6.616.04s-.49-.066-.854.152c-.356.212-.584.71-.584.71s-1.048 2.787-2.444 5.158C31.178 24.21 30 24.476 29.52 24.165c-1.12-.724-.84-2.908-.84-4.46 0-4.848.735-6.87-1.433-7.393-.719-.173-1.248-.288-3.088-.307-2.36-.024-4.358.007-5.49.562-.752.368-1.333 1.19-.979 1.237.437.058 1.427.267 1.952.981.679.923.655 2.994.655 2.994s.39 5.707-.91 6.416c-.892.486-2.115-.507-4.742-5.045-1.345-2.325-2.361-4.895-2.361-4.895s-.196-.48-.545-.737c-.424-.312-1.017-.41-1.017-.41l-6.287.04s-.943.027-1.29.438c-.309.365-.025 1.12-.025 1.12S8.041 26.22 13.614 32.024c5.111 5.32 10.914 4.972 10.914 4.972" clip-rule="evenodd"/></svg>