<svg width="50" height="50" fill="none" viewBox="0 0 50 50" xmlns="http://www.w3.org/2000/svg"> <path d="m24.528 36.996h2.63s0.7942-0.0875 1.2003-0.5245c0.3732-0.4016 0.3613-1.1552 0.3613-1.1552s-0.0514-3.5289 1.5861-4.0485c1.6149-0.5122 3.6881 3.4105 5.8855 4.919 1.6617 1.1411 2.9245 0.8913 2.9245 0.8913l5.876-0.0821s3.0737-0.1896 1.6162-2.6064c-0.1193-0.1974-0.8491-1.7876-4.3691-5.055-3.6848-3.4198-3.1909-2.8665 1.2474-8.7819 2.7029-3.6025 3.7832-5.8017 3.4456-6.7435-0.3216-0.8974-2.3098-0.6604-2.3098-0.6604l-6.6159 0.0409s-0.4908-0.0668-0.8543 0.1508c-0.3556 0.2127-0.5838 0.7097-0.5838 0.7097s-1.0475 2.7875-2.4435 5.1586c-2.946 5.0023-4.1242 5.2671-4.6057 4.956-1.1204-0.724-0.8404-2.9081-0.8404-4.4601 0-4.848 0.7353-6.8693-1.432-7.3926-0.719-0.1735-1.2488-0.2883-3.088-0.307-2.3608-0.0241-4.3585 0.0072-5.4898 0.5615-0.7527 0.3686-1.3334 1.1897-0.9795 1.237 0.4373 0.0582 1.4274 0.2672 1.9523 0.9815 0.6782 0.9227 0.6545 2.9939 0.6545 2.9939s0.3897 5.7068-0.9098 6.4155c-0.8917 0.4862-2.1151-0.5063-4.7416-5.0448-1.3455-2.3247-2.3617-4.8946-2.3617-4.8946s-0.1957-0.4802-0.5452-0.7372c-0.424-0.3115-1.0163-0.4101-1.0163-0.4101l-6.2871 0.041s-0.94357 0.0263-1.2903 0.4368c-0.30848 0.3653-0.02463 1.12-0.02463 1.12s4.9218 11.515 10.495 17.318c5.1109 5.3212 10.914 4.972 10.914 4.972z" clip-rule="evenodd" fill="#fff" fill-rule="evenodd"/>
</svg>