<svg width="50" height="50" viewBox="0 0 50 50" xmlns="http://www.w3.org/2000/svg"> <rect width="50" height="50" rx="25" fill="#000"/> <path d="m25 15c5.523 0 10 4.477 10 10s-4.477 10-10 10c-1.7672 0.0028-3.5033-0.4648-5.03-1.355l-4.966 1.355 1.352-4.968c-0.8909-1.5271-1.3589-3.264-1.356-5.032 0-5.523 4.477-10 10-10zm-3.408 5.3-0.2 8e-3c-0.1295 0.0079-0.256 0.0419-0.372 0.1-0.1085 0.0614-0.2075 0.1382-0.294 0.228-0.12 0.113-0.188 0.211-0.261 0.306-0.3699 0.4809-0.569 1.0713-0.566 1.678 2e-3 0.49 0.13 0.967 0.33 1.413 0.409 0.902 1.082 1.857 1.97 2.742 0.214 0.213 0.424 0.427 0.65 0.626 1.1034 0.9715 2.4183 1.672 3.84 2.046l0.568 0.087c0.185 0.01 0.37-4e-3 0.556-0.013 0.2912-0.015 0.5756-0.0939 0.833-0.231 0.131-0.0675 0.2588-0.1409 0.383-0.22 0 0 0.043-0.028 0.125-0.09 0.135-0.1 0.218-0.171 0.33-0.288 0.083-0.086 0.155-0.187 0.21-0.302 0.078-0.163 0.156-0.474 0.188-0.733 0.024-0.198 0.017-0.306 0.014-0.373-4e-3 -0.107-0.093-0.218-0.19-0.265l-0.582-0.261s-0.87-0.379-1.402-0.621c-0.0557-0.0243-0.1153-0.0382-0.176-0.041-0.0684-7e-3 -0.1375 7e-4 -0.2027 0.0226s-0.125 0.0575-0.1753 0.1044c-5e-3 -2e-3 -0.072 0.055-0.795 0.931-0.0415 0.0558-0.0987 0.0979-0.1642 0.121-0.0655 0.0232-0.1365 0.0263-0.2038 9e-3 -0.0651-0.0175-0.129-0.0395-0.191-0.066-0.124-0.052-0.167-0.072-0.252-0.108-0.5739-0.2505-1.1053-0.5889-1.575-1.003-0.126-0.11-0.243-0.23-0.363-0.346-0.3934-0.3768-0.7363-0.803-1.02-1.268l-0.059-0.095c-0.0424-0.0638-0.0766-0.1327-0.102-0.205-0.038-0.147 0.061-0.265 0.061-0.265s0.243-0.266 0.356-0.41c0.11-0.14 0.203-0.276 0.263-0.373 0.118-0.19 0.155-0.385 0.093-0.536-0.28-0.684-0.57-1.365-0.868-2.041-0.059-0.134-0.234-0.23-0.393-0.249-0.054-6e-3 -0.108-0.012-0.162-0.016-0.1343-0.0067-0.2689-0.0053-0.403 4e-3l0.202-7e-3z" fill="#fff"/>
</svg>